<svg xmlns="http://www.w3.org/2000/svg" viewBox="0 0 800 500">
  <!-- Background -->
  <rect width="800" height="500" fill="#f8f9fa" rx="10" ry="10" />
  
  <!-- Title -->
  <text x="400" y="30" font-family="Arial, sans-serif" font-size="20" font-weight="bold" text-anchor="middle" fill="#333">Grocery Store Locator - Architecture Simplifiée</text>
  
  <!-- Frontend - MAUI -->
  <rect x="50" y="80" width="220" height="180" rx="10" ry="10" fill="#e3f2fd" stroke="#2196f3" stroke-width="2" />
  <text x="160" y="105" font-family="Arial, sans-serif" font-size="16" font-weight="bold" text-anchor="middle" fill="#1565c0">Frontend (.NET MAUI)</text>
  
  <!-- Frontend Components -->
  <rect x="70" y="120" width="180" height="35" rx="5" ry="5" fill="#bbdefb" stroke="#64b5f6" stroke-width="1" />
  <text x="160" y="142" font-family="Arial, sans-serif" font-size="12" text-anchor="middle" fill="#1565c0">Interface Utilisateur (XAML)</text>
  
  <!-- SQLite -->
  <rect x="70" y="165" width="180" height="35" rx="5" ry="5" fill="#bbdefb" stroke="#64b5f6" stroke-width="1" />
  <text x="160" y="187" font-family="Arial, sans-serif" font-size="12" text-anchor="middle" fill="#1565c0">Stockage Local (SQLite)</text>
  
  <!-- Business Logic -->
  <rect x="70" y="210" width="180" height="35" rx="5" ry="5" fill="#bbdefb" stroke="#64b5f6" stroke-width="1" />
  <text x="160" y="232" font-family="Arial, sans-serif" font-size="12" text-anchor="middle" fill="#1565c0">Logique Métier (C#)</text>
  
  <!-- Backend -->
  <rect x="530" y="80" width="220" height="180" rx="10" ry="10" fill="#e8f5e9" stroke="#4caf50" stroke-width="2" />
  <text x="640" y="105" font-family="Arial, sans-serif" font-size="16" font-weight="bold" text-anchor="middle" fill="#2e7d32">Backend (.NET)</text>
  
  <!-- API Layer -->
  <rect x="550" y="120" width="180" height="35" rx="5" ry="5" fill="#c8e6c9" stroke="#81c784" stroke-width="1" />
  <text x="640" y="142" font-family="Arial, sans-serif" font-size="12" text-anchor="middle" fill="#2e7d32">API REST (ASP.NET Core)</text>
  
  <!-- Business Logic -->
  <rect x="550" y="165" width="180" height="35" rx="5" ry="5" fill="#c8e6c9" stroke="#81c784" stroke-width="1" />
  <text x="640" y="187" font-family="Arial, sans-serif" font-size="12" text-anchor="middle" fill="#2e7d32">Services Métier (C#)</text>
  
  <!-- Database -->
  <rect x="550" y="210" width="180" height="35" rx="5" ry="5" fill="#c8e6c9" stroke="#81c784" stroke-width="1" />
  <text x="640" y="232" font-family="Arial, sans-serif" font-size="12" text-anchor="middle" fill="#2e7d32">Base de Données (MariaDB)</text>
  
  <!-- External Service - Google Maps -->
  <rect x="270" y="350" width="260" height="80" rx="10" ry="10" fill="#fff3e0" stroke="#ff9800" stroke-width="2" />
  <text x="400" y="380" font-family="Arial, sans-serif" font-size="16" font-weight="bold" text-anchor="middle" fill="#e65100">Service Externe</text>
  <text x="400" y="405" font-family="Arial, sans-serif" font-size="14" text-anchor="middle" fill="#e65100">Google Maps API</text>
  
  <!-- Arrows/Connections -->
  <defs>
    <marker id="arrowhead2" markerWidth="10" markerHeight="7" refX="9" refY="3.5" orient="auto">
      <polygon points="0 0, 10 3.5, 0 7" fill="#37474f" />
    </marker>
  </defs>
  
  <!-- Frontend to Backend -->
  <line x1="270" y1="170" x2="530" y2="170" stroke="#37474f" stroke-width="2" marker-end="url(#arrowhead2)" />
  <text x="400" y="155" font-family="Arial, sans-serif" font-size="12" text-anchor="middle" fill="#37474f">API REST / JSON</text>

  <!-- Backend to Frontend -->
  <line x1="530" y1="190" x2="270" y2="190" stroke="#37474f" stroke-width="2" marker-end="url(#arrowhead2)" />
  <text x="400" y="205" font-family="Arial, sans-serif" font-size="12" text-anchor="middle" fill="#37474f">Réponses JSON</text>
  
  <!-- Frontend to External (Google Maps) -->
  <path d="M160 260 L160 320 L270 320 L270 350" stroke="#1565c0" stroke-width="2" fill="none" marker-end="url(#arrowhead2)" stroke-dasharray="5,3" />
  <text x="180" y="300" font-family="Arial, sans-serif" font-size="10" text-anchor="start" fill="#1565c0">Appels API pour cartes,</text>
  <text x="180" y="315" font-family="Arial, sans-serif" font-size="10" text-anchor="start" fill="#1565c0">géolocalisation, etc.</text>
  
  <!-- Backend to External (Google Maps) -->
  <path d="M640 260 L640 320 L530 320 L530 350" stroke="#2e7d32" stroke-width="2" fill="none" marker-end="url(#arrowhead2)" stroke-dasharray="5,3" />
  <text x="580" y="300" font-family="Arial, sans-serif" font-size="10" text-anchor="end" fill="#2e7d32">Calcul des distances,</text>
  <text x="580" y="315" font-family="Arial, sans-serif" font-size="10" text-anchor="end" fill="#2e7d32">géocodage, etc.</text>
  
  <!-- Key Components -->
  <rect x="50" y="450" width="700" height="30" rx="5" ry="5" fill="#eeeeee" stroke="#9e9e9e" stroke-width="1" />
  <text x="400" y="470" font-family="Arial, sans-serif" font-size="14" font-weight="bold" text-anchor="middle" fill="#333">
    .NET MAUI + SQLite (Frontend) | MariaDB (Backend) | Google Maps (Service Externe)
  </text>
</svg>
